<svg xmlns="http://www.w3.org/2000/svg" viewBox="0 0 280 80" width="280" height="80">
  <defs>
    <linearGradient id="fireGrad" x1="0%" y1="100%" x2="100%" y2="0%">
      <stop offset="0%"   stop-color="#e85d04"/>
      <stop offset="50%"  stop-color="#f48c06"/>
      <stop offset="100%" stop-color="#ffd166"/>
    </linearGradient>
    <!-- Flamme path -->
    <clipPath id="clip">
      <rect width="280" height="80"/>
    </clipPath>
  </defs>

  <!-- Flamme SVG (icône) -->
  <g transform="translate(8, 6) scale(0.9)">
    <!-- Flamme extérieure -->
    <path d="M32 70 C15 65 6 50 10 35 C13 23 22 16 24 8 C24 8 27 18 25 26 C30 20 31 10 28 2 C38 10 46 22 44 36 C46 30 47 22 44 16 C52 24 56 36 52 50 C56 45 58 38 56 30 C62 38 64 52 58 62 C54 68 46 72 38 72 C36 71.5 34 70.8 32 70 Z" fill="url(#fireGrad)" opacity="0.95"/>
    <!-- Cœur flamme (plus clair) -->
    <path d="M36 65 C26 62 22 52 25 42 C27 35 32 30 33 24 C33 24 35 31 34 37 C38 32 39 25 37 19 C43 26 46 35 44 45 C46 41 47 35 45 30 C49 36 50 46 47 54 C49 50 50 45 48 40 C52 46 53 56 49 63 C46 67 42 68 38 68 C37.3 67.5 36.6 66.3 36 65 Z" fill="#ffd166" opacity="0.6"/>
  </g>

  <!-- Texte CAGRILLE -->
  <text
    x="80"
    y="54"
    font-family="'Trebuchet MS', 'Arial Black', Arial, sans-serif"
    font-size="36"
    font-weight="900"
    letter-spacing="6"
    fill="url(#fireGrad)"
  >CAGRILLE</text>

  <!-- Sous-ligne décorative -->
  <line x1="80" y1="62" x2="272" y2="62" stroke="url(#fireGrad)" stroke-width="2" stroke-linecap="round" opacity="0.5"/>
</svg>
